<svg xmlns="http://www.w3.org/2000/svg" width="430" height="430" style="width:100%;height:100%;transform:translate3d(0,0,0);content-visibility:visible" viewBox="0 0 430 430"><defs><clipPath id="a"><path d="M0 0h430v430H0z"/></clipPath><clipPath id="v"><path d="M0 0h430v430H0z"/></clipPath><clipPath id="y"><path d="M0 0h430v430H0z"/></clipPath><clipPath id="x"><path d="M0 0h430v430H0z"/></clipPath><clipPath id="w"><path d="M0 0h430v430H0z"/></clipPath><clipPath id="l"><path d="M0 0h430v430H0z"/></clipPath><clipPath id="u"><path d="M0 0h430v430H0z"/></clipPath><clipPath id="t"><path d="M0 0h430v430H0z"/></clipPath><clipPath id="s"><path d="M0 0h430v430H0z"/></clipPath><clipPath id="r"><path d="M0 0h430v430H0z"/></clipPath><clipPath id="q"><path d="M0 0h430v430H0z"/></clipPath><clipPath id="p"><path d="M0 0h430v430H0z"/></clipPath><clipPath id="o"><path d="M0 0h430v430H0z"/></clipPath><clipPath id="n"><path d="M0 0h430v430H0z"/></clipPath><clipPath id="m"><path d="M0 0h430v430H0z"/></clipPath><clipPath id="b"><path d="M0 0h430v430H0z"/></clipPath><clipPath id="k"><path d="M0 0h430v430H0z"/></clipPath><clipPath id="j"><path d="M0 0h430v430H0z"/></clipPath><clipPath id="i"><path d="M0 0h430v430H0z"/></clipPath><clipPath id="h"><path d="M0 0h430v430H0z"/></clipPath><clipPath id="g"><path d="M0 0h430v430H0z"/></clipPath><clipPath id="f"><path d="M0 0h430v430H0z"/></clipPath><clipPath id="e"><path d="M0 0h430v430H0z"/></clipPath><clipPath id="d"><path d="M0 0h430v430H0z"/></clipPath><clipPath id="c"><path d="M0 0h430v430H0z"/></clipPath></defs><g fill="none" clip-path="url(#a)"><g clip-path="url(#b)" style="display:none"><g clip-path="url(#c)" style="display:none"><g style="display:none"><path class="primary"/><path class="primary"/></g><path class="primary" style="display:none"/><g style="display:none"><path class="primary"/><path class="primary"/></g></g><g clip-path="url(#d)" style="display:none"><g style="display:none"><path class="secondary"/><path class="secondary"/></g><path class="secondary" style="display:none"/><g style="display:none"><path class="secondary"/><path class="secondary"/></g></g><g clip-path="url(#e)" style="display:none"><g style="display:none"><path class="primary"/><path class="primary"/></g><path class="primary" style="display:none"/><g style="display:none"><path class="primary"/><path class="primary"/></g></g><g clip-path="url(#f)" style="display:none"><g style="display:none"><path class="primary"/><path class="primary"/></g><path class="primary" style="display:none"/><g style="display:none"><path class="primary"/><path class="primary"/></g></g><g clip-path="url(#g)" style="display:none"><g style="display:none"><path class="primary"/><path class="primary"/></g><path class="primary" style="display:none"/><g style="display:none"><path class="primary"/><path class="primary"/></g></g><g clip-path="url(#h)" style="display:none"><g style="display:none"><path class="secondary"/><path class="secondary"/></g><path class="secondary" style="display:none"/><g style="display:none"><path class="secondary"/><path class="secondary"/></g></g><g clip-path="url(#i)" style="display:none"><g style="display:none"><path class="secondary"/><path class="secondary"/></g><path class="secondary" style="display:none"/><g style="display:none"><path class="secondary"/><path class="secondary"/></g></g><g clip-path="url(#j)" style="display:none"><g style="display:none"><path class="primary"/><path class="primary"/></g><path class="primary" style="display:none"/><g style="display:none"><path class="primary"/><path class="primary"/></g></g><g clip-path="url(#k)" style="display:none"><g style="display:none"><path class="primary"/><path class="primary"/></g><path class="primary" style="display:none"/><g style="display:none"><path class="primary"/><path class="primary"/></g></g></g><g clip-path="url(#l)" style="display:block"><g clip-path="url(#m)" style="display:block"><g stroke="#000" stroke-linecap="round" stroke-linejoin="round" stroke-width="12" style="display:block"><path d="m310.233 112.164 26.06-14.666-35.97 73.774-81.742-7.517 26.07-14.675" class="primary"/><path d="m244.651 149.08-53.029-94.2 62.976.068a40.134 40.134 0 0 1 34.938 20.445l20.696 36.771" class="primary"/></g><path stroke="#000" stroke-linecap="round" stroke-linejoin="round" stroke-width="12" d="M49.1-1.237 15.662 55.247-49.1 16.909l36.551-61.743c8.276-13.981 28.55-13.86 36.66.218L49.1-1.237z" class="primary" style="display:block" transform="translate(153.503 127.414)"/><g style="display:none"><path class="primary"/><path class="primary"/></g></g><g clip-path="url(#n)" style="display:block" transform="rotate(120 218.61 232.418)"><g stroke="#73C7D2" stroke-linecap="round" stroke-linejoin="round" stroke-width="12" style="display:block"><path d="m310.233 112.164 26.06-14.666-35.97 73.774-81.742-7.517 26.07-14.675" class="secondary"/><path d="m244.651 149.08-53.029-94.2 62.976.068a40.134 40.134 0 0 1 34.938 20.445l20.696 36.771" class="secondary"/></g><path stroke="#73C7D2" stroke-linecap="round" stroke-linejoin="round" stroke-width="12" d="M49.1-1.237 15.662 55.247-49.1 16.909l36.551-61.743c8.276-13.981 28.55-13.86 36.66.218L49.1-1.237z" class="secondary" style="display:block" transform="translate(153.503 127.414)"/><g style="display:none"><path class="secondary"/><path class="secondary"/></g></g><g clip-path="url(#o)" style="display:block" transform="rotate(-120 216.9 231.57)"><g stroke="#000" stroke-linecap="round" stroke-linejoin="round" stroke-width="12" style="display:block"><path d="m310.233 112.164 26.06-14.666-35.97 73.774-81.742-7.517 26.07-14.675" class="primary"/><path d="m244.651 149.08-53.029-94.2 62.976.068a40.134 40.134 0 0 1 34.938 20.445l20.696 36.771" class="primary"/></g><path stroke="#000" stroke-linecap="round" stroke-linejoin="round" stroke-width="12" d="M49.1-1.237 15.662 55.247-49.1 16.909l36.551-61.743c8.276-13.981 28.55-13.86 36.66.218L49.1-1.237z" class="primary" style="display:block" transform="translate(153.503 127.414)"/><g style="display:none"><path class="primary"/><path class="primary"/></g></g><g clip-path="url(#p)" style="display:none"><g style="display:none"><path class="primary"/><path class="primary"/></g><path class="primary" style="display:none"/><g style="display:none"><path class="primary"/><path class="primary"/></g></g><g clip-path="url(#q)" style="display:none"><g style="display:none"><path class="primary"/><path class="primary"/></g><path class="primary" style="display:none"/><g style="display:none"><path class="primary"/><path class="primary"/></g></g><g clip-path="url(#r)" style="display:none"><g style="display:none"><path class="secondary"/><path class="secondary"/></g><path class="secondary" style="display:none"/><g style="display:none"><path class="secondary"/><path class="secondary"/></g></g><g clip-path="url(#s)" style="display:none"><g style="display:none"><path class="secondary"/><path class="secondary"/></g><path class="secondary" style="display:none"/><g style="display:none"><path class="secondary"/><path class="secondary"/></g></g><g clip-path="url(#t)" style="display:none"><g style="display:none"><path class="primary"/><path class="primary"/></g><path class="primary" style="display:none"/><g style="display:none"><path class="primary"/><path class="primary"/></g></g><g clip-path="url(#u)" style="display:none"><g style="display:none"><path class="primary"/><path class="primary"/></g><path class="primary" style="display:none"/><g style="display:none"><path class="primary"/><path class="primary"/></g></g></g><g clip-path="url(#v)" style="display:none"><g clip-path="url(#w)" style="display:none"><g style="display:none"><path class="secondary"/><path class="secondary"/></g><g style="display:none"><path class="secondary"/><path class="secondary"/></g><g style="display:none"><path class="secondary"/><path class="secondary"/></g></g><g clip-path="url(#x)" style="display:none"><g style="display:none"><path class="primary"/><path class="primary"/></g><g style="display:none"><path class="primary"/><path class="primary"/></g><g style="display:none"><path class="primary"/><path class="primary"/></g></g><g clip-path="url(#y)" style="display:none"><g style="display:none"><path class="primary"/><path class="primary"/></g><g style="display:none"><path class="primary"/><path class="primary"/></g><g style="display:none"><path class="primary"/><path class="primary"/></g></g></g></g></svg>
